<svg xmlns="http://www.w3.org/2000/svg" viewBox="0 0 720 150" role="img" aria-labelledby="title desc">
  <title id="title">Tool Atlas interface icon concepts</title>
  <desc id="desc">Six blue and navy line icons for catalog, documentation, updates, about, saved tools, and external links.</desc>
  <rect width="720" height="150" rx="18" fill="#f4f8fd"/>
  <g fill="none" stroke-linecap="round" stroke-linejoin="round" stroke-width="2.25">
    <g transform="translate(28 22)">
      <rect width="88" height="88" rx="18" fill="#fff" stroke="#dce7ef"/>
      <g transform="translate(24 24)" stroke="#1764ec">
        <path d="M4 6h13v13H4zM23 6h13v13H23zM4 25h13v11H4z"/>
        <path d="M23 25h13v11H23z" stroke="#f0a51a"/>
      </g>
      <text x="44" y="116" text-anchor="middle" fill="#10243e" stroke="none" font-family="Inter,Arial,sans-serif" font-size="12" font-weight="700">Catalog</text>
    </g>
    <g transform="translate(144 22)">
      <rect width="88" height="88" rx="18" fill="#fff" stroke="#dce7ef"/>
      <g transform="translate(24 23)" stroke="#1764ec">
        <path d="M4 7c5-3 10-3 16 0v30c-6-3-11-3-16 0zM36 7c-5-3-10-3-16 0v30c6-3 11-3 16 0z"/>
        <path d="M9 14h6M25 14h6M9 20h6M25 20h6" stroke="#081d38"/>
      </g>
      <text x="44" y="116" text-anchor="middle" fill="#10243e" stroke="none" font-family="Inter,Arial,sans-serif" font-size="12" font-weight="700">Docs</text>
    </g>
    <g transform="translate(260 22)">
      <rect width="88" height="88" rx="18" fill="#fff" stroke="#dce7ef"/>
      <g transform="translate(24 24)" stroke="#1764ec">
        <path d="M20 4a16 16 0 1 0 16 16"/>
        <path d="M27 4h9v9M36 4 24 16" stroke="#f0a51a"/>
        <path d="M20 12v9l6 4" stroke="#081d38"/>
      </g>
      <text x="44" y="116" text-anchor="middle" fill="#10243e" stroke="none" font-family="Inter,Arial,sans-serif" font-size="12" font-weight="700">Updates</text>
    </g>
    <g transform="translate(376 22)">
      <rect width="88" height="88" rx="18" fill="#fff" stroke="#dce7ef"/>
      <g transform="translate(24 24)" stroke="#1764ec">
        <circle cx="20" cy="20" r="16"/>
        <path d="M20 18v11M20 11h.01" stroke="#081d38"/>
        <path d="M9 7a16 16 0 0 1 22 0" stroke="#f0a51a"/>
      </g>
      <text x="44" y="116" text-anchor="middle" fill="#10243e" stroke="none" font-family="Inter,Arial,sans-serif" font-size="12" font-weight="700">About</text>
    </g>
    <g transform="translate(492 22)">
      <rect width="88" height="88" rx="18" fill="#fff" stroke="#dce7ef"/>
      <g transform="translate(24 24)" stroke="#1764ec">
        <path d="M9 5h22a3 3 0 0 1 3 3v29L20 29 6 37V8a3 3 0 0 1 3-3z"/>
        <path d="m13 18 5 5 10-11" stroke="#f0a51a"/>
      </g>
      <text x="44" y="116" text-anchor="middle" fill="#10243e" stroke="none" font-family="Inter,Arial,sans-serif" font-size="12" font-weight="700">Saved</text>
    </g>
    <g transform="translate(608 22)">
      <rect width="88" height="88" rx="18" fill="#fff" stroke="#dce7ef"/>
      <g transform="translate(24 24)" stroke="#1764ec">
        <path d="M23 5h13v13M36 5 18 23" stroke="#f0a51a"/>
        <path d="M32 23v10a3 3 0 0 1-3 3H8a3 3 0 0 1-3-3V12a3 3 0 0 1 3-3h10"/>
      </g>
      <text x="44" y="116" text-anchor="middle" fill="#10243e" stroke="none" font-family="Inter,Arial,sans-serif" font-size="12" font-weight="700">External</text>
    </g>
  </g>
</svg>
